<?xml version="1.0" encoding="UTF-8" standalone="no"?>
<!-- Created with Inkscape (http://www.inkscape.org/) -->

<svg
   width="194.28922mm"
   height="55.065102mm"
   viewBox="0 0 194.28922 55.065102"
   version="1.1"
   id="svg1"
   xmlns="http://www.w3.org/2000/svg"
   xmlns:svg="http://www.w3.org/2000/svg">
  <defs
     id="defs1" />
  <g
     id="layer1"
     transform="translate(-7.9187566,-103.59308)">
    <g
       id="layer12"
       style="display:inline"
       transform="matrix(1.9204366,0,0,1.9204366,-92.785286,-319.62402)">
      <path
         style="fill:#00cffe;fill-opacity:1;stroke-width:0.264583"
         d="m 52.825573,228.86776 h 4.649684 v 19.50284 l -5.037159,0.25832 z"
         id="path21" />
      <path
         style="fill:#00cffe;fill-opacity:1;stroke-width:0.264583"
         d="m 52.696493,224.75922 h 4.794742 v -4.38376 h -4.931733 z"
         id="path22" />
      <path
         style="fill:#00c4f7;fill-opacity:1;stroke-width:0.264583"
         d="m 62.447835,242.49392 14.142788,-15.43437 -16.144736,-0.0646 v -4.64968 h 21.763104 c 0,0 2.462485,0.31532 1.9739,3.4189 v 0 l -16.052109,18.27963 15.628104,-0.19374 v 4.77884 H 61.995783 c 0,0 -3.745579,-2.06653 0.452052,-6.135"
         id="path23" />
      <path
         style="display:inline;fill:#00ade9;fill-opacity:1;stroke-width:0.264583"
         d="m 101.19188,244.12085 v 4.65775 l -9.863467,-0.27399 c 0,0 -5.662363,-2.10055 -5.114393,-5.38838 v -8.85885 c 0,0 0.365316,-4.01845 4.657751,-5.02306 h 12.146679 c 0,0 4.29243,0.18266 4.01845,6.39299 0,0 -0.0913,6.94095 -4.65775,6.39299 h -9.498154 v -4.65775 h 9.041514 c 0,0 3.10517,-2.83118 0,-3.74447 h -9.680812 c 0,0 -2.191882,0.6393 -1.369927,2.64853 v 6.7583 c 0,0 0.273986,1.64391 3.013838,1.2786 z"
         id="path24" />
      <path
         style="fill:#00a2e0;fill-opacity:1;stroke-width:0.264583"
         d="m 114.3693,228.90005 h -5.16631 v 12.81892 c 0,0 0.16144,6.26416 7.32971,7.32971 h 13.52929 c 0,0 1.88237,-0.23041 1.32866,-4.95862 v -15.25458 h -4.84822 v 15.27291 h -9.4931 c 0,0 -3.13208,-0.96868 -2.80918,-4.74655 z"
         id="path25" />
      <path
         style="fill:#008ad0;fill-opacity:1;stroke-width:0.264583"
         d="m 151.10286,232.33948 v -3.79013 l -13.10563,0.27399 c 0,0 -1.33523,0.31177 -2.28208,1.43074 -0.80347,0.94954 -1.2378,2.53145 -1.27973,4.45994 0,0 -0.77629,4.42943 5.27422,5.27422 h 8.19673 c 0,0 2.26836,-0.29591 2.38163,1.66656 0.0876,1.51742 -0.73057,2.11628 -2.42733,2.37472 h -13.37958 v 4.61209 h 13.74492 c 0,0 4.45159,-0.59478 5.25922,-5.15337 0,0 0.12216,-0.90952 0.12216,-1.98664 0,-1.98276 -0.99366,-4.81578 -4.8331,-5.78296 l -10.00047,-0.0457 c 0,0 -0.73062,-2.96819 1.59825,-3.10517 z"
         id="path26" />
    </g>
  </g>
</svg>
